<svg width="22" height="22" viewBox="0 0 22 22" fill="none" xmlns="http://www.w3.org/2000/svg">
<path fill-rule="evenodd" clip-rule="evenodd" d="M14.7781 13.6836C16.6745 11.248 16.5032 7.72435 14.2643 5.48535C11.8398 3.06087 7.90887 3.06087 5.48438 5.48535C3.05989 7.90984 3.05989 11.8407 5.48438 14.2652C7.72339 16.5042 11.2471 16.6755 13.6827 14.7791C13.6932 14.7909 13.7041 14.8026 13.7154 14.8139L17.0079 18.1063C17.311 18.4094 17.8024 18.4094 18.1054 18.1063C18.4084 17.8033 18.4084 17.312 18.1054 17.0088L14.813 13.7164C14.8016 13.7051 14.7899 13.6942 14.7781 13.6836ZM13.1165 6.56741C14.9253 8.37615 14.9253 11.3087 13.1165 13.1175C11.3078 14.9262 8.37521 14.9262 6.56647 13.1175C4.75772 11.3087 4.75772 8.37615 6.56647 6.56741C8.37521 4.75866 11.3078 4.75866 13.1165 6.56741Z" fill="#1C162E"/>
</svg>
