<svg width="20" height="20" viewBox="0 0 20 20" fill="none" xmlns="http://www.w3.org/2000/svg">
<path fill-rule="evenodd" clip-rule="evenodd" d="M14.2725 11.1838C13.3237 12.4004 12.3317 13.3742 11.1833 14.2689C12.1347 14.8183 14.3669 15.8141 15.0902 15.091C15.5838 14.5975 15.357 13.0536 14.2725 11.1838ZM10.0017 13.5006C11.323 12.5341 12.5326 11.3248 13.4987 10.0038C12.5366 8.68742 11.3277 7.4768 10.0017 6.50698C8.67098 7.47946 7.46406 8.6914 6.50397 10.0038C7.47005 11.3255 8.68029 12.5341 10.0017 13.5006ZM8.81935 14.2689C7.66831 13.3716 6.6763 12.3977 5.73019 11.1838C4.64568 13.0536 4.4188 14.5975 4.91249 15.091C5.62905 15.8067 7.84197 14.8343 8.81935 14.2689ZM5.73019 8.82378C6.67829 7.60718 7.67031 6.63403 8.81935 5.73871C7.86925 5.18928 5.63637 4.19286 4.91249 4.91656C4.4188 5.41012 4.64568 6.95398 5.73019 8.82378ZM11.1833 5.73871C12.3343 6.63536 13.3257 7.60917 14.2725 8.82378C16.6797 4.67244 14.8593 3.61416 11.1833 5.73871ZM15.1101 10.0038C18.7329 15.6644 15.6191 18.7095 10.0017 15.1156C4.39751 18.7009 1.25779 15.683 4.89319 10.0038C1.29504 4.38243 4.32898 1.26278 10.0017 4.89195C15.6171 1.29936 18.7362 4.33853 15.1101 10.0038ZM10.7109 9.29671C11.1001 9.6865 11.1001 10.3184 10.7109 10.7075C10.321 11.0973 9.68895 11.0973 9.29906 10.7075C8.90917 10.3184 8.90917 9.6865 9.29906 9.29671C9.68895 8.90692 10.321 8.90692 10.7109 9.29671Z" fill="#E0E0E0"/>
</svg>
