<svg width="14" height="14" viewBox="0 0 14 14" fill="none" xmlns="http://www.w3.org/2000/svg">
<path d="M4.66683 8.16669C2.91683 8.16669 2.3335 8.75002 2.3335 8.75002V1.75002C2.3335 1.75002 2.91683 1.16669 4.66683 1.16669C6.41683 1.16669 7.5835 2.33335 9.3335 2.33335C11.0835 2.33335 11.6668 1.75002 11.6668 1.75002V8.75002C11.6668 8.75002 11.0835 9.33335 9.3335 9.33335C7.5835 9.33335 6.41683 8.16669 4.66683 8.16669Z" fill="#C1C7D0"/>
<path d="M2.3335 8.75002C2.3335 8.75002 2.91683 8.16669 4.66683 8.16669C6.41683 8.16669 7.5835 9.33335 9.3335 9.33335C11.0835 9.33335 11.6668 8.75002 11.6668 8.75002V1.75002C11.6668 1.75002 11.0835 2.33335 9.3335 2.33335C7.5835 2.33335 6.41683 1.16669 4.66683 1.16669C2.91683 1.16669 2.3335 1.75002 2.3335 1.75002L2.3335 12.8334" stroke="#C1C7D0" stroke-linecap="round" stroke-linejoin="round"/>
</svg>
