<svg width="22" height="14" viewBox="0 0 22 14" fill="none" xmlns="http://www.w3.org/2000/svg">
<path d="M0.194835 0.569214H19.9718C20.0235 0.569236 20.073 0.58977 20.1096 0.626304C20.1461 0.662837 20.1666 0.712382 20.1667 0.764049V10.9231C20.1666 10.9747 20.1461 11.0243 20.1096 11.0608C20.073 11.0973 20.0235 11.1179 19.9718 11.1179H0.194876C0.143198 11.1179 0.0936435 11.0973 0.0571019 11.0608C0.0205603 11.0243 2.18141e-05 10.9747 0 10.923V0.764089C2.18141e-05 0.712423 0.020556 0.662879 0.0570899 0.626345C0.0936237 0.589811 0.143168 0.569236 0.194835 0.569214Z" fill="#2AB52D"/>
<path fill-rule="evenodd" clip-rule="evenodd" d="M0.194876 0.569214H0.266529V11.1179H0.194876C0.143242 11.1178 0.0937629 11.0972 0.0572483 11.0607C0.0207337 11.0242 0.000152055 10.9747 0 10.9231V0.764089C0.000152055 0.712456 0.0207337 0.662981 0.0572483 0.626474C0.0937629 0.589968 0.143242 0.569355 0.194876 0.569214Z" fill="#009903"/>
<path fill-rule="evenodd" clip-rule="evenodd" d="M2.35547 0.569214H17.8112C17.8112 1.87009 18.8658 2.92468 20.1667 2.92468V8.76244C18.8658 8.76244 17.8112 9.81703 17.8112 11.1179H2.35547C2.35547 9.81703 1.30087 8.76244 0 8.76244V2.92472C1.30087 2.92472 2.35547 1.87009 2.35547 0.569214Z" fill="#32D736"/>
<path fill-rule="evenodd" clip-rule="evenodd" d="M0.266488 8.77762C0.178011 8.76761 0.0890417 8.76257 0 8.76252V2.9248C0.0901327 2.9248 0.179031 2.91953 0.266488 2.9097V8.77762Z" fill="#2AB52D"/>
<path fill-rule="evenodd" clip-rule="evenodd" d="M3.19489 1.55696C2.86992 2.60884 2.03967 3.43913 0.987793 3.76406V7.92313C2.03967 8.2481 2.86996 9.07835 3.19489 10.1302H16.9719C17.2968 9.07835 18.1271 8.24806 19.1789 7.92313V3.76406C18.1271 3.43909 17.2968 2.60884 16.9719 1.55696H3.19489Z" fill="#51E854"/>
<path d="M12.3466 8.10898C13.5978 6.85781 13.5978 4.82926 12.3466 3.57809C11.0955 2.32692 9.06691 2.32692 7.81574 3.57809C6.56457 4.82926 6.56457 6.85781 7.81574 8.10898C9.06691 9.36015 11.0955 9.36015 12.3466 8.10898Z" fill="#7DFF7F"/>
<path fill-rule="evenodd" clip-rule="evenodd" d="M4.9458 5.83413C4.9458 5.76864 4.97182 5.70583 5.01813 5.65952C5.06444 5.61321 5.12725 5.58719 5.19274 5.58719C5.25823 5.58719 5.32104 5.61321 5.36735 5.65952C5.41366 5.70583 5.43968 5.76864 5.43968 5.83413V5.8531C5.43968 5.91859 5.41366 5.9814 5.36735 6.02771C5.32104 6.07402 5.25823 6.10004 5.19274 6.10004C5.12725 6.10004 5.06444 6.07402 5.01813 6.02771C4.97182 5.9814 4.9458 5.91859 4.9458 5.8531V5.83413ZM14.7269 5.83413C14.7269 5.76864 14.7529 5.70583 14.7992 5.65952C14.8456 5.61321 14.9084 5.58719 14.9739 5.58719C15.0394 5.58719 15.1022 5.61321 15.1485 5.65952C15.1948 5.70583 15.2208 5.76864 15.2208 5.83413V5.8531C15.2208 5.91859 15.1948 5.9814 15.1485 6.02771C15.1022 6.07402 15.0394 6.10004 14.9739 6.10004C14.9084 6.10004 14.8456 6.07402 14.7992 6.02771C14.7529 5.9814 14.7269 5.91859 14.7269 5.8531V5.83413Z" fill="#2AB52D"/>
<path fill-rule="evenodd" clip-rule="evenodd" d="M9.37062 6.6889C9.36458 6.65702 9.35232 6.62665 9.33455 6.59951C9.31677 6.57237 9.29383 6.549 9.26702 6.53073C9.21288 6.49384 9.1463 6.47996 9.08192 6.49215C9.01755 6.50434 8.96066 6.54161 8.92376 6.59575C8.88686 6.64989 8.87298 6.71647 8.88518 6.78084C8.98375 7.29974 9.40017 7.58841 9.83688 7.67801V8.07225C9.83628 8.10505 9.84222 8.13764 9.85436 8.16812C9.8665 8.1986 9.88459 8.22636 9.90758 8.24977C9.93056 8.27318 9.95798 8.29177 9.98824 8.30446C10.0185 8.31716 10.051 8.3237 10.0838 8.3237C10.1166 8.3237 10.1491 8.31716 10.1793 8.30446C10.2096 8.29177 10.237 8.27318 10.26 8.24977C10.283 8.22636 10.3011 8.1986 10.3132 8.16812C10.3253 8.13764 10.3313 8.10505 10.3307 8.07225V7.69711C10.8024 7.63945 11.1616 7.36654 11.2546 6.97522C11.3346 6.63922 11.3309 6.02702 10.4061 5.70406C10.3813 5.6955 10.3558 5.68768 10.3307 5.67953V4.50324C10.4608 4.53711 10.737 4.6433 10.7917 4.93839C10.8163 5.0726 10.9452 5.16105 11.0793 5.13627C11.1437 5.12435 11.2007 5.08735 11.2378 5.03341C11.275 4.97947 11.2892 4.913 11.2774 4.84859C11.2016 4.44031 10.8868 4.13061 10.4353 4.02015C10.4007 4.01172 10.3658 4.00451 10.3307 3.99854V3.615C10.3313 3.5822 10.3253 3.54961 10.3132 3.51913C10.3011 3.48865 10.283 3.46089 10.26 3.43748C10.237 3.41407 10.2096 3.39548 10.1793 3.38279C10.1491 3.37009 10.1166 3.36356 10.0838 3.36356C10.051 3.36356 10.0185 3.37009 9.98824 3.38279C9.95798 3.39548 9.93056 3.41407 9.90758 3.43748C9.88459 3.46089 9.8665 3.48865 9.85436 3.51913C9.84222 3.54961 9.83628 3.5822 9.83688 3.615V3.99891C9.55113 4.04916 9.29773 4.18609 9.13467 4.39492C8.81854 4.79928 8.86295 5.3737 9.23752 5.73073C9.40543 5.89104 9.62356 5.97907 9.83688 6.04648V7.16944C9.61949 7.10186 9.42066 6.95341 9.37062 6.6889ZM10.7744 6.86089C10.7294 7.04844 10.5389 7.15598 10.3307 7.19648V6.20366C10.8769 6.42689 10.8033 6.73952 10.7744 6.86085V6.86089ZM9.57846 5.37349C9.35934 5.16487 9.38543 4.8762 9.52413 4.69878C9.59447 4.6086 9.70645 4.54275 9.83696 4.50575V5.52351C9.73432 5.48338 9.64357 5.43568 9.5785 5.37349H9.57846Z" fill="#009903"/>
<path d="M2.02833 2.54376H21.8053C21.857 2.54378 21.9065 2.56432 21.9431 2.60085C21.9796 2.63739 22.0001 2.68693 22.0002 2.7386V12.8976C22.0001 12.9493 21.9796 12.9988 21.9431 13.0354C21.9065 13.0719 21.857 13.0924 21.8053 13.0925H2.02837C1.97669 13.0924 1.92714 13.0719 1.8906 13.0353C1.85406 12.9988 1.83352 12.9493 1.8335 12.8976V2.73864C1.83352 2.68697 1.85405 2.63743 1.89059 2.60089C1.92712 2.56436 1.97666 2.54378 2.02833 2.54376Z" fill="#2AB52D"/>
<path fill-rule="evenodd" clip-rule="evenodd" d="M2.02837 2.54376H2.10003V13.0925H2.02837C1.97674 13.0924 1.92726 13.0718 1.89074 13.0353C1.85423 12.9988 1.83365 12.9493 1.8335 12.8977V2.73864C1.83365 2.687 1.85423 2.63753 1.89074 2.60102C1.92726 2.56452 1.97674 2.5439 2.02837 2.54376Z" fill="#009903"/>
<path fill-rule="evenodd" clip-rule="evenodd" d="M4.18896 2.54376H19.6447C19.6447 3.84464 20.6993 4.89923 22.0002 4.89923V10.737C20.6993 10.737 19.6447 11.7916 19.6447 13.0925H4.18896C4.18896 11.7916 3.13437 10.737 1.8335 10.737V4.89927C3.13437 4.89927 4.18896 3.84464 4.18896 2.54376Z" fill="#32D736"/>
<path fill-rule="evenodd" clip-rule="evenodd" d="M2.09998 10.7521C2.01151 10.7421 1.92254 10.7371 1.8335 10.737V4.89929C1.92363 4.89929 2.01253 4.89402 2.09998 4.88419V10.7521Z" fill="#2AB52D"/>
<path fill-rule="evenodd" clip-rule="evenodd" d="M5.02839 3.53145C4.70342 4.58333 3.87317 5.41362 2.82129 5.73855V9.89761C3.87317 10.2226 4.70346 11.0528 5.02839 12.1047H18.8053C19.1303 11.0528 19.9606 10.2225 21.0124 9.89761V5.73855C19.9606 5.41357 19.1303 4.58333 18.8053 3.53145H5.02839Z" fill="#51E854"/>
<path d="M14.1796 10.0835C15.4308 8.8323 15.4308 6.80375 14.1796 5.55258C12.9285 4.30141 10.8999 4.30141 9.64875 5.55258C8.39758 6.80375 8.39758 8.8323 9.64875 10.0835C10.8999 11.3346 12.9285 11.3346 14.1796 10.0835Z" fill="#7DFF7F"/>
<path fill-rule="evenodd" clip-rule="evenodd" d="M6.7793 7.80861C6.7793 7.74312 6.80531 7.68031 6.85162 7.634C6.89793 7.58769 6.96074 7.56168 7.02624 7.56168C7.09173 7.56168 7.15454 7.58769 7.20085 7.634C7.24716 7.68031 7.27317 7.74312 7.27317 7.80861V7.82759C7.27317 7.89308 7.24716 7.95589 7.20085 8.0022C7.15454 8.04851 7.09173 8.07453 7.02624 8.07453C6.96074 8.07453 6.89793 8.04851 6.85162 8.0022C6.80531 7.95589 6.7793 7.89308 6.7793 7.82759V7.80861ZM16.5604 7.80861C16.5604 7.74312 16.5864 7.68031 16.6327 7.634C16.6791 7.58769 16.7419 7.56168 16.8074 7.56168C16.8728 7.56168 16.9357 7.58769 16.982 7.634C17.0283 7.68031 17.0543 7.74312 17.0543 7.80861V7.82759C17.0543 7.89308 17.0283 7.95589 16.982 8.0022C16.9357 8.04851 16.8728 8.07453 16.8074 8.07453C16.7419 8.07453 16.6791 8.04851 16.6327 8.0022C16.5864 7.95589 16.5604 7.89308 16.5604 7.82759V7.80861Z" fill="#2AB52D"/>
<path fill-rule="evenodd" clip-rule="evenodd" d="M11.2036 8.66338C11.1976 8.63151 11.1853 8.60114 11.1676 8.574C11.1498 8.54686 11.1268 8.52349 11.1 8.50522C11.0459 8.46832 10.9793 8.45444 10.9149 8.46664C10.8506 8.47883 10.7937 8.51609 10.7568 8.57023C10.7199 8.62437 10.706 8.69095 10.7182 8.75533C10.8168 9.27423 11.2332 9.5629 11.6699 9.6525V10.0467C11.6693 10.0795 11.6752 10.1121 11.6874 10.1426C11.6995 10.1731 11.7176 10.2008 11.7406 10.2243C11.7636 10.2477 11.791 10.2663 11.8212 10.279C11.8515 10.2916 11.884 10.2982 11.9168 10.2982C11.9496 10.2982 11.9821 10.2916 12.0123 10.279C12.0426 10.2663 12.07 10.2477 12.093 10.2243C12.116 10.2008 12.1341 10.1731 12.1462 10.1426C12.1583 10.1121 12.1643 10.0795 12.1637 10.0467V9.67159C12.6355 9.61393 12.9946 9.34102 13.0876 8.94971C13.1676 8.61371 13.1639 8.00151 12.2391 7.67855C12.2143 7.66999 12.1888 7.66217 12.1637 7.65402V6.47773C12.2938 6.5116 12.57 6.61778 12.6248 6.91288C12.6493 7.04709 12.7782 7.13553 12.9123 7.11076C12.9767 7.09884 13.0337 7.06184 13.0708 7.0079C13.108 6.95396 13.1222 6.88748 13.1104 6.82307C13.0346 6.4148 12.7198 6.1051 12.2683 5.99463C12.2337 5.98621 12.1988 5.979 12.1637 5.97303V5.58949C12.1643 5.55669 12.1583 5.52409 12.1462 5.49362C12.1341 5.46314 12.116 5.43538 12.093 5.41197C12.07 5.38856 12.0426 5.36997 12.0123 5.35727C11.9821 5.34458 11.9496 5.33804 11.9168 5.33804C11.884 5.33804 11.8515 5.34458 11.8212 5.35727C11.791 5.36997 11.7636 5.38856 11.7406 5.41197C11.7176 5.43538 11.6995 5.46314 11.6874 5.49362C11.6752 5.52409 11.6693 5.55669 11.6699 5.58949V5.9734C11.3841 6.02365 11.1307 6.16058 10.9677 6.36941C10.6516 6.77377 10.696 7.34819 11.0705 7.70522C11.2384 7.86553 11.4566 7.95356 11.6699 8.02097V9.14393C11.4525 9.07635 11.2537 8.9279 11.2036 8.66338ZM12.6074 8.83538C12.5624 9.02293 12.3719 9.13047 12.1637 9.17097V8.17815C12.7099 8.40138 12.6363 8.71401 12.6074 8.83534V8.83538ZM11.4115 7.34798C11.1923 7.13936 11.2184 6.85069 11.3571 6.67326C11.4275 6.58309 11.5395 6.51724 11.67 6.48024V7.498C11.5673 7.45787 11.4766 7.41017 11.4115 7.34798H11.4115Z" fill="#009903"/>
</svg>
