<svg width="24" height="24" viewBox="0 0 24 24" fill="none" xmlns="http://www.w3.org/2000/svg">
<path fill-rule="evenodd" clip-rule="evenodd" d="M12 21C16.9706 21 21 16.9706 21 12C21 7.02944 16.9706 3 12 3C7.02944 3 3 7.02944 3 12C3 16.9706 7.02944 21 12 21ZM9.70711 11.2929C9.31658 10.9024 8.68342 10.9024 8.29289 11.2929C7.90237 11.6834 7.90237 12.3166 8.29289 12.7071L10.2929 14.7071C10.6834 15.0976 11.3166 15.0976 11.7071 14.7071L15.7071 10.7071C16.0976 10.3166 16.0976 9.68342 15.7071 9.29289C15.3166 8.90237 14.6834 8.90237 14.2929 9.29289L11 12.5858L9.70711 11.2929Z" fill="#C1C7D0"/>
<mask id="mask0_848_2516" style="mask-type:luminance" maskUnits="userSpaceOnUse" x="2" y="2" width="20" height="20">
<path fill-rule="evenodd" clip-rule="evenodd" d="M12 21C16.9706 21 21 16.9706 21 12C21 7.02944 16.9706 3 12 3C7.02944 3 3 7.02944 3 12C3 16.9706 7.02944 21 12 21ZM9.70711 11.2929C9.31658 10.9024 8.68342 10.9024 8.29289 11.2929C7.90237 11.6834 7.90237 12.3166 8.29289 12.7071L10.2929 14.7071C10.6834 15.0976 11.3166 15.0976 11.7071 14.7071L15.7071 10.7071C16.0976 10.3166 16.0976 9.68342 15.7071 9.29289C15.3166 8.90237 14.6834 8.90237 14.2929 9.29289L11 12.5858L9.70711 11.2929Z" fill="white"/>
<path d="M8.29289 11.2929L7.93934 10.9393L7.93934 10.9393L8.29289 11.2929ZM8.29289 12.7071L7.93934 13.0607L7.93934 13.0607L8.29289 12.7071ZM10.2929 14.7071L10.6464 14.3536L10.6464 14.3536L10.2929 14.7071ZM15.7071 10.7071L16.0607 11.0607L16.0607 11.0607L15.7071 10.7071ZM15.7071 9.29289L16.0607 8.93934L16.0607 8.93934L15.7071 9.29289ZM14.2929 9.29289L13.9393 8.93934L13.9393 8.93934L14.2929 9.29289ZM11 12.5858L10.6464 12.9393L11 13.2929L11.3536 12.9393L11 12.5858ZM12 21.5C17.2467 21.5 21.5 17.2467 21.5 12H20.5C20.5 16.6944 16.6944 20.5 12 20.5V21.5ZM21.5 12C21.5 6.75329 17.2467 2.5 12 2.5V3.5C16.6944 3.5 20.5 7.30558 20.5 12H21.5ZM12 2.5C6.75329 2.5 2.5 6.75329 2.5 12H3.5C3.5 7.30558 7.30558 3.5 12 3.5V2.5ZM2.5 12C2.5 17.2467 6.75329 21.5 12 21.5V20.5C7.30558 20.5 3.5 16.6944 3.5 12H2.5ZM10.0607 10.9393C9.47487 10.3536 8.52513 10.3536 7.93934 10.9393L8.64645 11.6464C8.84171 11.4512 9.15829 11.4512 9.35355 11.6464L10.0607 10.9393ZM7.93934 10.9393C7.35355 11.5251 7.35355 12.4749 7.93934 13.0607L8.64645 12.3536C8.45118 12.1583 8.45118 11.8417 8.64645 11.6464L7.93934 10.9393ZM7.93934 13.0607L9.93934 15.0607L10.6464 14.3536L8.64645 12.3536L7.93934 13.0607ZM9.93934 15.0607C10.5251 15.6464 11.4749 15.6464 12.0607 15.0607L11.3536 14.3536C11.1583 14.5488 10.8417 14.5488 10.6464 14.3536L9.93934 15.0607ZM12.0607 15.0607L16.0607 11.0607L15.3536 10.3536L11.3536 14.3536L12.0607 15.0607ZM16.0607 11.0607C16.6464 10.4749 16.6464 9.52513 16.0607 8.93934L15.3536 9.64645C15.5488 9.84171 15.5488 10.1583 15.3536 10.3536L16.0607 11.0607ZM16.0607 8.93934C15.4749 8.35355 14.5251 8.35355 13.9393 8.93934L14.6464 9.64645C14.8417 9.45118 15.1583 9.45118 15.3536 9.64645L16.0607 8.93934ZM13.9393 8.93934L10.6464 12.2322L11.3536 12.9393L14.6464 9.64645L13.9393 8.93934ZM11.3536 12.2322L10.0607 10.9393L9.35355 11.6464L10.6464 12.9393L11.3536 12.2322Z" fill="white"/>
</mask>
<g mask="url(#mask0_848_2516)">
</g>
</svg>
