<svg width="21" height="21" viewBox="0 0 21 21" fill="none" xmlns="http://www.w3.org/2000/svg">
<path fill-rule="evenodd" clip-rule="evenodd" d="M16.625 20.7083C18.8802 20.7083 20.7083 18.8801 20.7083 16.625C20.7083 14.3698 18.8802 12.5416 16.625 12.5416C14.3698 12.5416 12.5417 14.3698 12.5417 16.625C12.5417 18.8801 14.3698 20.7083 16.625 20.7083ZM16.625 8.45829C18.8802 8.45829 20.7083 6.63012 20.7083 4.37496C20.7083 2.1198 18.8802 0.291626 16.625 0.291626C14.3698 0.291626 12.5417 2.1198 12.5417 4.37496C12.5417 6.63012 14.3698 8.45829 16.625 8.45829ZM4.37499 20.7083C6.63015 20.7083 8.45832 18.8801 8.45832 16.625C8.45832 14.3698 6.63015 12.5416 4.37499 12.5416C2.11983 12.5416 0.291656 14.3698 0.291656 16.625C0.291656 18.8801 2.11983 20.7083 4.37499 20.7083Z" fill="#FFEBE5" fill-opacity="0.2"/>
<path fill-rule="evenodd" clip-rule="evenodd" d="M4.37499 8.45829C6.63015 8.45829 8.45832 6.63012 8.45832 4.37496C8.45832 2.1198 6.63015 0.291626 4.37499 0.291626C2.11983 0.291626 0.291656 2.1198 0.291656 4.37496C0.291656 6.63012 2.11983 8.45829 4.37499 8.45829Z" fill="url(#paint0_linear_834_3502)"/>
<defs>
<linearGradient id="paint0_linear_834_3502" x1="0.291656" y1="0.291626" x2="0.291656" y2="8.45829" gradientUnits="userSpaceOnUse">
<stop stop-color="#F1651A"/>
<stop offset="1" stop-color="#DE350B"/>
</linearGradient>
</defs>
</svg>
