<svg width="20" height="21" viewBox="0 0 20 21" fill="none" xmlns="http://www.w3.org/2000/svg">
<path fill-rule="evenodd" clip-rule="evenodd" d="M17.49 17.9138C17.49 18.4804 17.0585 18.9402 16.5267 18.9402C15.9949 18.9402 15.5634 18.4804 15.5634 17.9138V3.54414C15.5634 2.97757 15.9949 2.51774 16.5267 2.51774C17.0585 2.51774 17.49 2.97757 17.49 3.54414V17.9138ZM17.49 0.464935H15.5634C14.4989 0.464935 13.6367 1.38357 13.6367 2.51774V18.9402C13.6367 20.0744 14.4989 20.993 15.5634 20.993H17.49C18.5545 20.993 19.4167 20.0744 19.4167 18.9402V2.51774C19.4167 1.38357 18.5545 0.464935 17.49 0.464935ZM4.00336 17.9138C4.00336 18.4804 3.57178 18.9402 3.04002 18.9402C2.50826 18.9402 2.07669 18.4804 2.07669 17.9138V7.64976C2.07669 7.08318 2.50826 6.62335 3.04002 6.62335C3.57178 6.62335 4.00336 7.08318 4.00336 7.64976V17.9138ZM4.00336 4.57055H2.07669C1.01221 4.57055 0.150024 5.48918 0.150024 6.62335V18.9402C0.150024 20.0744 1.01221 20.993 2.07669 20.993H4.00336C5.06784 20.993 5.93002 20.0744 5.93002 18.9402V6.62335C5.93002 5.48918 5.06784 4.57055 4.00336 4.57055ZM10.7467 17.9138C10.7467 18.4804 10.3151 18.9402 9.78336 18.9402C9.2516 18.9402 8.82002 18.4804 8.82002 17.9138V13.8082C8.82002 13.2416 9.2516 12.7818 9.78336 12.7818C10.3151 12.7818 10.7467 13.2416 10.7467 13.8082V17.9138ZM10.7467 10.729H8.82002C7.75554 10.729 6.89336 11.6476 6.89336 12.7818V18.9402C6.89336 20.0744 7.75554 20.993 8.82002 20.993H10.7467C11.8112 20.993 12.6734 20.0744 12.6734 18.9402V12.7818C12.6734 11.6476 11.8112 10.729 10.7467 10.729Z" fill="#1C162E"/>
</svg>
