<svg width="14" height="14" viewBox="0 0 14 14" fill="none" xmlns="http://www.w3.org/2000/svg">
<path fill-rule="evenodd" clip-rule="evenodd" d="M7.25706 0.0670247L12.6421 2.05402C13.0665 2.20945 13.3491 2.61299 13.3501 3.06502V6.04702C13.4553 9.86917 10.8031 13.216 7.05806 13.987C6.94549 14.0057 6.83062 14.0057 6.71806 13.987C2.97301 13.216 0.320841 9.86917 0.426057 6.04702V3.06502C0.425744 2.61503 0.704734 2.21209 1.12606 2.05402L6.51106 0.0670247C6.75177 -0.0219347 7.01635 -0.0219347 7.25706 0.0670247ZM6.69506 8.84402L9.70806 5.56902L9.71606 5.57302C9.88129 5.36653 9.92381 5.08756 9.82759 4.84121C9.73138 4.59486 9.51105 4.41856 9.24959 4.37871C8.98814 4.33886 8.72529 4.44152 8.56006 4.64802L6.06006 7.27702L5.16006 6.37702C4.87094 6.0879 4.40218 6.0879 4.11306 6.37702C3.82394 6.66615 3.82394 7.1349 4.11306 7.42402L5.59406 8.90002C5.73224 9.03993 5.92042 9.11909 6.11706 9.12002H6.15806C6.36829 9.10906 6.56377 9.00859 6.69506 8.84402Z" fill="#00875A"/>
</svg>
