<svg width="21" height="21" viewBox="0 0 21 21" fill="none" xmlns="http://www.w3.org/2000/svg">
<path fill-rule="evenodd" clip-rule="evenodd" d="M16.625 20.7083C18.8802 20.7083 20.7083 18.8801 20.7083 16.625C20.7083 14.3698 18.8802 12.5416 16.625 12.5416C14.3698 12.5416 12.5417 14.3698 12.5417 16.625C12.5417 18.8801 14.3698 20.7083 16.625 20.7083ZM16.625 8.45829C18.8802 8.45829 20.7083 6.63012 20.7083 4.37496C20.7083 2.1198 18.8802 0.291626 16.625 0.291626C14.3698 0.291626 12.5417 2.1198 12.5417 4.37496C12.5417 6.63012 14.3698 8.45829 16.625 8.45829ZM4.375 20.7083C6.63016 20.7083 8.45833 18.8801 8.45833 16.625C8.45833 14.3698 6.63016 12.5416 4.375 12.5416C2.11984 12.5416 0.291666 14.3698 0.291666 16.625C0.291666 18.8801 2.11984 20.7083 4.375 20.7083Z" fill="#C1C7D0"/>
<path fill-rule="evenodd" clip-rule="evenodd" d="M4.375 8.45829C6.63016 8.45829 8.45833 6.63012 8.45833 4.37496C8.45833 2.1198 6.63016 0.291626 4.375 0.291626C2.11984 0.291626 0.291666 2.1198 0.291666 4.37496C0.291666 6.63012 2.11984 8.45829 4.375 8.45829Z" fill="#C1C7D0"/>
</svg>
