<svg width="21" height="21" viewBox="0 0 21 21" fill="none" xmlns="http://www.w3.org/2000/svg">
<path fill-rule="evenodd" clip-rule="evenodd" d="M10.4998 0.291656C4.86193 0.291656 0.291504 4.86208 0.291504 10.5C0.291504 16.1379 4.86193 20.7083 10.4998 20.7083C16.1377 20.7083 20.7082 16.1379 20.7082 10.5C20.7082 7.79257 19.6327 5.19604 17.7182 3.28161C15.8038 1.36717 13.2073 0.291656 10.4998 0.291656Z" fill="#C1C7D0"/>
<path fill-rule="evenodd" clip-rule="evenodd" d="M15.1664 7.11957L13.4266 12.285C13.2442 12.8212 12.8202 13.2404 12.2819 13.4167L7.07998 15.1375C6.72387 15.2542 6.33236 15.16 6.06845 14.8939C5.80454 14.6278 5.71345 14.2355 5.8331 13.8804L7.5729 8.71644C7.75572 8.18013 8.17953 7.76064 8.71769 7.58332L13.9196 5.86394C14.2757 5.74719 14.6672 5.84148 14.9311 6.10755C15.195 6.37362 15.2861 6.76589 15.1664 7.12103V7.11957Z" fill="white"/>
</svg>
