<svg width="14" height="12" viewBox="0 0 14 12" fill="none" xmlns="http://www.w3.org/2000/svg">
<path fill-rule="evenodd" clip-rule="evenodd" d="M3.97301 10.774L0.500005 7.30001C0.17825 6.97853 -0.00253296 6.54234 -0.00253296 6.08751C-0.00253296 5.63267 0.17825 5.19649 0.500005 4.87501C1.16994 4.20606 2.25507 4.20606 2.92501 4.87501L5.10001 7.04801C5.19128 7.13877 5.33873 7.13877 5.43001 7.04801L11.07 1.40801C11.7399 0.739059 12.8251 0.739059 13.495 1.40801C13.8168 1.72949 13.9975 2.16567 13.9975 2.62051C13.9975 3.07534 13.8168 3.51153 13.495 3.83301L6.55501 10.774C5.84195 11.4869 4.68606 11.4869 3.97301 10.774Z" fill="#42526E"/>
</svg>
