<svg width="20" height="20" viewBox="0 0 20 20" fill="none" xmlns="http://www.w3.org/2000/svg">
<path fill-rule="evenodd" clip-rule="evenodd" d="M14.3757 15.333H5.6261C5.15517 15.333 4.80742 14.8683 4.98504 14.441C5.80916 12.465 7.74527 11.333 10.0006 11.333C12.2565 11.333 14.1926 12.465 15.0167 14.441C15.1944 14.8683 14.8466 15.333 14.3757 15.333ZM7.27843 7.33299C7.27843 5.86233 8.49998 4.66633 10.0005 4.66633C11.5018 4.66633 12.7227 5.86233 12.7227 7.33299C12.7227 8.80366 11.5018 9.99966 10.0005 9.99966C8.49998 9.99966 7.27843 8.80366 7.27843 7.33299ZM16.6378 15.0903C16.143 12.851 14.5955 11.1983 12.5587 10.4483C13.638 9.59699 14.2675 8.22033 14.0361 6.71299C13.768 4.96433 12.283 3.56499 10.4905 3.36099C8.01612 3.07899 5.91737 4.96566 5.91737 7.33299C5.91737 8.59299 6.51351 9.71566 7.44311 10.4483C5.40561 11.1983 3.85876 12.851 3.36333 15.0903C3.18367 15.9043 3.85332 16.6663 4.7033 16.6663H15.2978C16.1485 16.6663 16.8181 15.9043 16.6378 15.0903Z" fill="#E0E0E0"/>
</svg>
