<svg width="29" height="33" viewBox="0 0 29 33" fill="none" xmlns="http://www.w3.org/2000/svg">
<path fill-rule="evenodd" clip-rule="evenodd" d="M15.6294 26.6276C15.2528 27.0483 14.643 27.0483 14.2673 26.6276C13.8906 26.2069 13.8906 25.5259 14.2673 25.1063L20.4711 18.1775C20.7746 17.8385 20.5598 17.2597 20.1311 17.2597H5.8805C5.34874 17.2597 4.91717 16.768 4.91717 16.1741V16.1698C4.91717 15.5759 5.34874 15.1079 5.8805 15.1079H20.1311C20.5598 15.1079 20.7746 14.528 20.4711 14.1891L14.2374 7.22578C13.8608 6.8051 13.8608 6.12406 14.2374 5.70338C14.6131 5.28377 15.2229 5.28377 15.5996 5.70338L23.6193 14.6614C24.3717 15.5017 24.3717 16.8638 23.6193 17.704C23.4238 17.9225 15.4743 26.8008 15.6294 26.6276Z" fill="white"/>
</svg>
