<svg width="28" height="28" viewBox="0 0 28 28" fill="none" xmlns="http://www.w3.org/2000/svg">
<mask id="mask0_10236_157317" style="mask-type:luminance" maskUnits="userSpaceOnUse" x="0" y="0" width="28" height="28">
<path fill-rule="evenodd" clip-rule="evenodd" d="M0.269484 8.60863C0.678829 4.14928 4.14766 0.667558 8.60747 0.263207C10.3083 0.109002 12.161 0 14 0C15.8456 0 17.7048 0.109776 19.4106 0.264848C23.8613 0.669462 27.3249 4.13954 27.732 8.58998C27.8887 10.3033 28 12.1655 28 14C28 15.8412 27.8879 17.7104 27.7303 19.4289C27.3229 23.8698 23.8714 27.3342 19.4301 27.7366C17.7265 27.8909 15.8633 28 14 28C12.1433 28 10.2866 27.8917 8.58798 27.7382C4.13752 27.3361 0.680802 23.86 0.271221 19.4103C0.112792 17.6891 0 15.8234 0 14C0 12.1833 0.111968 10.3246 0.269484 8.60863Z" fill="white"/>
</mask>
<g mask="url(#mask0_10236_157317)">
<rect width="28" height="28" fill="url(#paint0_linear_10236_157317)"/>
<path fill-rule="evenodd" clip-rule="evenodd" d="M9.669 8.60834C9.37611 8.31545 8.90123 8.31545 8.60834 8.60834C8.31545 8.90123 8.31545 9.37611 8.60834 9.669L12.9394 14L8.60839 18.3311C8.31549 18.6239 8.31549 19.0988 8.60839 19.3917C8.90128 19.6846 9.37616 19.6846 9.66905 19.3917L14.0001 15.0607L18.3311 19.3917C18.624 19.6846 19.0989 19.6846 19.3917 19.3917C19.6846 19.0988 19.6846 18.6239 19.3917 18.3311L15.0607 14L19.3917 9.669C19.6847 9.37611 19.6847 8.90123 19.3917 8.60834C19.0989 8.31545 18.624 8.31545 18.3311 8.60834L14.0001 12.9394L9.669 8.60834Z" fill="white"/>
</g>
<defs>
<linearGradient id="paint0_linear_10236_157317" x1="43.1504" y1="16.3008" x2="15.1504" y2="-14" gradientUnits="userSpaceOnUse">
<stop stop-color="#E83F94"/>
<stop offset="1" stop-color="#F54E5E"/>
</linearGradient>
</defs>
</svg>
