<svg width="14" height="14" viewBox="0 0 14 14" fill="none" xmlns="http://www.w3.org/2000/svg">
<path fill-rule="evenodd" clip-rule="evenodd" d="M7.83097 0.687955L9.58497 4.38796L13.177 4.76896C13.5489 4.80504 13.8619 5.0627 13.9688 5.42073C14.0757 5.77876 13.9552 6.16587 13.664 6.39996L10.8 8.75496L11.686 12.714C11.7669 13.0737 11.625 13.447 11.3255 13.6621C11.0261 13.8772 10.627 13.8925 10.312 13.701L6.99997 11.686L3.68497 13.7C3.36977 13.8911 2.97088 13.8757 2.6714 13.6607C2.37192 13.4457 2.22968 13.0728 2.30997 12.713L3.19997 8.75496L0.335972 6.39996C0.0468286 6.16526 -0.0720942 5.77927 0.0348352 5.42255C0.141765 5.06582 0.453404 4.8089 0.823972 4.77196L4.41497 4.39096L6.16897 0.687955C6.32137 0.367152 6.64481 0.16272 6.99997 0.16272C7.35513 0.16272 7.67858 0.367152 7.83097 0.687955Z" fill="#FF991F"/>
</svg>
