<svg width="22" height="22" viewBox="0 0 22 22" fill="none" xmlns="http://www.w3.org/2000/svg">
<path fill-rule="evenodd" clip-rule="evenodd" d="M16.866 13.037C16.866 13.4225 16.536 13.7934 16.1312 13.7934H15.3993V8.15023C15.3993 7.37778 14.7401 6.80928 13.929 6.80928H8.06602V6.0529C8.06602 5.66737 8.39308 5.41245 8.79788 5.41245H16.1312C16.536 5.41245 16.866 5.66737 16.866 6.0529V13.037ZM13.9327 15.8886C13.9327 16.2742 13.6041 16.5871 13.1993 16.5871H5.86602C5.46122 16.5871 5.13268 16.2742 5.13268 15.8886V8.90451C5.13268 8.51829 5.46122 8.2061 5.86602 8.2061H13.1993C13.6041 8.2061 13.9327 8.51829 13.9327 8.90451V15.8886ZM16.8623 4.01562H8.06748C7.25568 4.01562 6.59935 4.58413 6.59935 5.35658V6.80928H5.13415C4.32235 6.80928 3.66602 7.37778 3.66602 8.15023V16.527C3.66602 17.2994 4.32235 17.9839 5.13415 17.9839H13.929C14.7401 17.9839 15.3993 17.2994 15.3993 16.527V15.1902H16.8623C17.6734 15.1902 18.3327 14.5058 18.3327 13.7333V5.35658C18.3327 4.58413 17.6734 4.01562 16.8623 4.01562Z" fill="#1C162E"/>
</svg>
