<svg width="20" height="20" viewBox="0 0 20 20" fill="none" xmlns="http://www.w3.org/2000/svg">
<path fill-rule="evenodd" clip-rule="evenodd" d="M10.6673 14.444C10.6673 14.7945 10.3687 15.079 10.0007 15.079C9.63265 15.079 9.33398 14.7945 9.33398 14.444V5.55515C9.33398 5.20468 9.63265 4.92023 10.0007 4.92023C10.3687 4.92023 10.6673 5.20468 10.6673 5.55515V14.444ZM10.6673 3.65039H9.33398C8.59732 3.65039 8.00065 4.21864 8.00065 4.92023V15.079C8.00065 15.7805 8.59732 16.3488 9.33398 16.3488H10.6673C11.404 16.3488 12.0007 15.7805 12.0007 15.079V4.92023C12.0007 4.21864 11.404 3.65039 10.6673 3.65039ZM6.00065 14.444C6.00065 14.7945 5.70198 15.079 5.33398 15.079C4.96598 15.079 4.66732 14.7945 4.66732 14.444V8.09484C4.66732 7.74436 4.96598 7.45991 5.33398 7.45991C5.70198 7.45991 6.00065 7.74436 6.00065 8.09484V14.444ZM6.00065 6.19007H4.66732C3.93065 6.19007 3.33398 6.75833 3.33398 7.45992V15.079C3.33398 15.7806 3.93065 16.3488 4.66732 16.3488H6.00065C6.73732 16.3488 7.33398 15.7806 7.33398 15.079V7.45992C7.33398 6.75833 6.73732 6.19007 6.00065 6.19007ZM15.334 14.444C15.334 14.7945 15.0353 15.079 14.6673 15.079C14.2993 15.079 14.0007 14.7945 14.0007 14.444V11.9044C14.0007 11.5539 14.2993 11.2694 14.6673 11.2694C15.0353 11.2694 15.334 11.5539 15.334 11.9044V14.444ZM15.334 9.9996H14.0007C13.264 9.9996 12.6673 10.5679 12.6673 11.2694V15.079C12.6673 15.7805 13.264 16.3488 14.0007 16.3488H15.334C16.0707 16.3488 16.6673 15.7805 16.6673 15.079V11.2694C16.6673 10.5679 16.0707 9.9996 15.334 9.9996Z" fill="#E0E0E0"/>
</svg>
