<svg width="22" height="22" viewBox="0 0 22 22" fill="none" xmlns="http://www.w3.org/2000/svg">
<path fill-rule="evenodd" clip-rule="evenodd" d="M2.75 5.49967C2.75 4.99342 3.16041 4.58301 3.66667 4.58301H18.3333C18.8396 4.58301 19.25 4.99342 19.25 5.49967C19.25 6.00593 18.8396 6.41634 18.3333 6.41634H3.66667C3.16041 6.41634 2.75 6.00593 2.75 5.49967ZM2.75 9.16634C2.75 8.66008 3.16041 8.24967 3.66667 8.24967H11C11.5063 8.24967 11.9167 8.66008 11.9167 9.16634C11.9167 9.67262 11.5063 10.083 11 10.083H3.66667C3.16041 10.083 2.75 9.67262 2.75 9.16634ZM2.75 12.833C2.75 12.3267 3.16041 11.9163 3.66667 11.9163H18.3333C18.8396 11.9163 19.25 12.3267 19.25 12.833C19.25 13.3393 18.8396 13.7497 18.3333 13.7497H3.66667C3.16041 13.7497 2.75 13.3393 2.75 12.833ZM2.75 16.4997C2.75 15.9934 3.16041 15.583 3.66667 15.583H11C11.5063 15.583 11.9167 15.9934 11.9167 16.4997C11.9167 17.006 11.5063 17.4163 11 17.4163H3.66667C3.16041 17.4163 2.75 17.006 2.75 16.4997Z" fill="#1C162E"/>
</svg>
