<svg width="19" height="21" viewBox="0 0 19 21" fill="none" xmlns="http://www.w3.org/2000/svg">
<path fill-rule="evenodd" clip-rule="evenodd" d="M0.523956 17.7173V16.2502C0.579407 15.1609 1.23424 14.1921 2.22437 13.7346C6.8935 11.8591 12.1065 11.8591 16.7756 13.7346C17.7658 14.1921 18.4206 15.1609 18.476 16.2502V17.7173C18.4757 18.5115 18.1596 19.2729 17.5975 19.8339C17.0354 20.3949 16.2733 20.7095 15.4792 20.7083H3.52083C2.72667 20.7095 1.96461 20.3949 1.4025 19.8339C0.840394 19.2729 0.524342 18.5115 0.523956 17.7173Z" fill="#C1C7D0"/>
<path fill-rule="evenodd" clip-rule="evenodd" d="M9.5 0.291657C7.48261 0.291067 5.66354 1.50586 4.89111 3.36951C4.11868 5.23317 4.54503 7.37862 5.97133 8.80534C7.39763 10.2321 9.54296 10.659 11.4068 9.88715C13.2707 9.11526 14.486 7.29655 14.486 5.27916C14.4864 3.95652 13.9613 2.68793 13.0262 1.75255C12.0911 0.81717 10.8226 0.291657 9.5 0.291657Z" fill="#C1C7D0"/>
</svg>
