<svg width="19" height="21" viewBox="0 0 19 21" fill="none" xmlns="http://www.w3.org/2000/svg">
<path fill-rule="evenodd" clip-rule="evenodd" d="M0.523926 17.7174V16.2504C0.579377 15.161 1.23421 14.1923 2.22434 13.7347C6.89347 11.8593 12.1065 11.8593 16.7756 13.7347C17.7657 14.1923 18.4206 15.161 18.476 16.2504V17.7174C18.4756 18.5116 18.1596 19.273 17.5975 19.8341C17.0354 20.3951 16.2733 20.7096 15.4791 20.7085H3.5208C2.72664 20.7096 1.96458 20.3951 1.40247 19.8341C0.840364 19.273 0.524312 18.5116 0.523926 17.7174Z" fill="#EF9F27" fill-opacity="0.8"/>
<path fill-rule="evenodd" clip-rule="evenodd" d="M9.49985 0.291748C7.48246 0.291158 5.66339 1.50595 4.89096 3.3696C4.11853 5.23326 4.54488 7.37871 5.97118 8.80543C7.39748 10.2321 9.5428 10.6591 11.4067 9.88724C13.2706 9.11535 14.4859 7.29664 14.4859 5.27925C14.4863 3.95661 13.9611 2.68802 13.026 1.75264C12.0909 0.817262 10.8225 0.291748 9.49985 0.291748Z" fill="#EF9F27" fill-opacity="0.8"/>
</svg>
