<svg width="10" height="10" viewBox="0 0 10 10" fill="none" xmlns="http://www.w3.org/2000/svg">
<path fill-rule="evenodd" clip-rule="evenodd" d="M5.55382 0.792006L6.72315 3.25867L9.11782 3.51267C9.36575 3.53673 9.57444 3.7085 9.64571 3.94719C9.71698 4.18587 9.63664 4.44395 9.44248 4.60001L7.53315 6.17001L8.12382 8.80934C8.17778 9.04916 8.08318 9.29801 7.88354 9.44142C7.68389 9.58484 7.41786 9.59504 7.20782 9.46734L4.99982 8.12401L2.78982 9.46667C2.57968 9.59412 2.31376 9.58382 2.11411 9.44051C1.91445 9.29719 1.81963 9.04854 1.87315 8.80867L2.46649 6.17001L0.557152 4.60001C0.36439 4.44354 0.285108 4.18622 0.356394 3.9484C0.42768 3.71059 0.63544 3.5393 0.882485 3.51467L3.27649 3.26067L4.44582 0.792006C4.54742 0.578137 4.76304 0.441849 4.99982 0.441849C5.23659 0.441849 5.45222 0.578137 5.55382 0.792006Z" fill="#EF9F27"/>
</svg>
