<svg width="24" height="24" viewBox="0 0 24 24" fill="none" xmlns="http://www.w3.org/2000/svg">
<path fill-rule="evenodd" clip-rule="evenodd" d="M10.381 18.762C8.03422 18.0401 6.49414 15.7965 6.66402 13.347C6.68538 12.0167 7.24841 10.7527 8.22302 9.84702C8.37384 9.70694 8.58081 9.64423 8.78402 9.67702C9.14802 9.73602 9.02602 10.377 8.96702 10.742C8.87131 11.2066 8.96695 11.6901 9.23232 12.0833C9.49769 12.4765 9.91036 12.746 10.377 12.831C12.377 12.831 9.00502 8.83902 12.505 5.09902C12.5966 5.00703 12.7362 4.98263 12.8536 5.03808C12.971 5.09352 13.0408 5.21682 13.028 5.34602C12.948 7.34602 15.514 9.39802 16.34 10.546C17.6822 12.418 17.6755 14.9389 16.3234 16.8037C14.9714 18.6685 12.5775 19.4586 10.381 18.765V18.762Z" fill="#C1C7D0"/>
</svg>
