<svg width="48" height="48" viewBox="0 0 48 48" fill="none" xmlns="http://www.w3.org/2000/svg">
<rect width="48" height="48" rx="12" fill="#EF9F27" fill-opacity="0.8"/>
<path d="M23.9624 12.3254C23.9806 12.345 24.0027 12.3606 24.0272 12.3712C24.0517 12.3819 24.0781 12.3874 24.1048 12.3874C24.1316 12.3874 24.158 12.3819 24.1825 12.3712C24.207 12.3606 24.2291 12.345 24.2473 12.3254C24.7434 11.7925 25.7816 11.9563 26.1669 12.5113C26.8341 13.4783 26.3713 14.9466 24.3125 15.7446C24.1789 15.7957 24.0311 15.7957 23.8974 15.7446C21.8388 14.9466 21.3758 13.4783 22.0462 12.5113C22.4285 11.9563 23.4665 11.7925 23.9624 12.3254ZM28.1083 21.9635H18.1052C18.0266 21.9635 17.9512 21.9322 17.8957 21.8767C17.8401 21.8211 17.8089 21.7457 17.8089 21.6671C17.8089 21.5885 17.8401 21.5131 17.8957 21.4576C17.9512 21.402 18.0266 21.3708 18.1052 21.3708H28.1083C28.1869 21.3708 28.2623 21.402 28.3179 21.4576C28.3734 21.5131 28.4046 21.5885 28.4046 21.6671C28.4046 21.7457 28.3734 21.8211 28.3179 21.8767C28.2623 21.9322 28.1869 21.9635 28.1083 21.9635Z" fill="#FFEBE5" fill-opacity="0.2"/>
<path d="M32.0175 22.0729C31.98 21.9762 31.4268 18.313 30.9952 17.4138C30.8755 17.164 30.7076 16.8141 30.4125 16.7323C30.294 16.7146 30.1731 16.7221 30.0577 16.7545C29.9424 16.7869 29.8352 16.8434 29.7433 16.9202C29.7073 16.9475 29.6626 16.9605 29.6177 16.9569C29.5727 16.9533 29.5306 16.9333 29.4995 16.9007C29.3969 16.7991 29.2697 16.726 29.1303 16.6884C28.9909 16.6507 28.8442 16.6499 28.7044 16.686C28.5672 16.7333 28.4428 16.8117 28.3409 16.915C28.3052 16.942 28.262 16.9572 28.2172 16.9586C28.1725 16.96 28.1284 16.9474 28.091 16.9227C27.9091 16.7458 27.667 16.6444 27.4134 16.6387C27.1693 16.6326 26.9311 16.7144 26.7423 16.8693C26.6794 16.9288 26.5968 16.963 26.5102 16.9655C26.4236 16.968 26.3392 16.9385 26.273 16.8827C26.0901 16.7352 25.8625 16.6544 25.6276 16.6535C25.362 16.6642 25.1048 16.7499 24.8859 16.9007C24.8522 16.9217 24.8129 16.932 24.7733 16.9301C24.7336 16.9282 24.6955 16.9143 24.6639 16.8902C24.4236 16.7156 24.1318 16.6266 23.835 16.6374C23.6742 16.6304 23.5136 16.6556 23.3627 16.7115C23.2117 16.7674 23.0735 16.8529 22.956 16.9629C22.9205 16.9955 22.8742 17.0139 22.826 17.0146C22.7777 17.0154 22.7309 16.9984 22.6943 16.967C22.4904 16.7755 22.2193 16.6722 21.9397 16.6794C21.7129 16.6796 21.4933 16.7593 21.3193 16.9048C21.2827 16.9332 21.2376 16.9485 21.1913 16.948C21.145 16.9475 21.1003 16.9313 21.0644 16.902C20.8479 16.7244 20.5749 16.6304 20.2949 16.6374C20.1462 16.6347 19.9985 16.6617 19.8604 16.7169C19.7223 16.7721 19.5966 16.8544 19.4907 16.9588C19.4557 16.9936 19.4088 17.0139 19.3595 17.0158C19.3102 17.0177 19.2619 17.001 19.2243 16.969C19.0589 16.8206 18.8535 16.7241 18.6336 16.6917C18.4049 16.6608 18.1726 16.7131 17.9792 16.839C17.7857 16.9649 17.6439 17.1561 17.5795 17.3777C17.3978 18.0236 17.2881 19.3273 17.1706 20.2744C17.057 21.1983 16.9251 21.6715 16.709 22.09C14.4755 26.4174 14.2008 31.4552 14.3621 34.9204C14.3755 35.2116 14.5008 35.4864 14.7118 35.6875C14.9228 35.8886 15.2033 36.0006 15.4948 36H32.4723C32.7542 35.9989 33.0257 35.893 33.2339 35.7029C33.4422 35.5128 33.5722 35.252 33.5988 34.9713C33.8512 32.0419 33.5241 25.9167 32.0175 22.0729ZM24.6848 26.727L23.7014 27.7104C23.5906 27.8219 23.459 27.9105 23.314 27.971C23.169 28.0315 23.0134 28.0629 22.8563 28.0632C22.6827 28.0619 22.5117 28.0206 22.3565 27.9426L21.9862 28.3129L23.5419 29.8684C23.6499 29.9763 23.7106 30.1228 23.7106 30.2755C23.7106 30.4282 23.65 30.5747 23.542 30.6827C23.4341 30.7907 23.2876 30.8513 23.1349 30.8514C22.9822 30.8514 22.8357 30.7907 22.7277 30.6828L21.3488 29.3038L19.9858 30.6669C19.9325 30.7212 19.8691 30.7645 19.799 30.7942C19.7289 30.8239 19.6537 30.8393 19.5776 30.8397C19.5015 30.8402 19.4261 30.8255 19.3558 30.7965C19.2854 30.7676 19.2215 30.725 19.1677 30.6712C19.1139 30.6174 19.0713 30.5535 19.0423 30.4831C19.0134 30.4128 18.9987 30.3373 18.9991 30.2613C18.9995 30.1852 19.015 30.1099 19.0447 30.0399C19.0744 29.9698 19.1177 29.9064 19.172 29.8531L20.6925 28.3327L20.3572 27.9958C20.3116 28.0158 20.2646 28.0323 20.2166 28.0453C19.9343 28.1223 19.6363 28.1203 19.3551 28.0396C19.0738 27.9588 18.8202 27.8024 18.6218 27.5873C18.4045 27.3606 18.2479 27.0828 18.1663 26.7795C18.113 26.5746 18.1142 26.3594 18.1698 26.1551C18.2253 25.9508 18.3333 25.7646 18.483 25.615C18.6328 25.4653 18.819 25.3574 19.0233 25.3019C19.2276 25.2465 19.4429 25.2454 19.6477 25.2988C19.9508 25.3801 20.2286 25.5363 20.4555 25.7531C20.6698 25.9522 20.8256 26.2059 20.9063 26.4869C20.9871 26.768 20.9896 27.0657 20.9138 27.3481C20.8971 27.4081 20.875 27.4664 20.8476 27.5223L21.2432 27.9188C21.3036 27.9135 21.3643 27.9125 21.4249 27.916C21.4299 27.9106 21.8695 27.4655 21.8695 27.4655C21.7566 27.2439 21.7171 26.9921 21.7568 26.7466C21.7966 26.501 21.9134 26.2745 22.0905 26.0998L23.0742 25.1161C23.1056 25.0836 23.1432 25.0576 23.1848 25.0398C23.2263 25.0219 23.2711 25.0125 23.3163 25.0121C23.3616 25.0117 23.4064 25.0203 23.4483 25.0375C23.4902 25.0546 23.5282 25.0799 23.5602 25.1119C23.5922 25.1439 23.6175 25.1819 23.6347 25.2238C23.6518 25.2657 23.6604 25.3106 23.66 25.3558C23.6596 25.4011 23.6502 25.4458 23.6324 25.4874C23.6145 25.5289 23.5885 25.5665 23.556 25.598L22.5723 26.5814C22.5249 26.6227 22.4864 26.6733 22.4594 26.7302C22.4323 26.787 22.4172 26.8487 22.415 26.9116C22.4128 26.9745 22.4236 27.0372 22.4466 27.0957C22.4696 27.1543 22.5045 27.2075 22.5489 27.252C22.5934 27.2965 22.6465 27.3315 22.705 27.3546C22.7635 27.3777 22.8262 27.3886 22.8891 27.3865C22.952 27.3844 23.0137 27.3694 23.0706 27.3425C23.1274 27.3155 23.1781 27.2771 23.2196 27.2297L24.203 26.2461C24.2346 26.2144 24.2722 26.1894 24.3136 26.1722C24.3549 26.1551 24.3992 26.1463 24.444 26.1463C24.4887 26.1463 24.533 26.1552 24.5744 26.1723C24.6157 26.1894 24.6533 26.2145 24.6849 26.2462C24.7166 26.2779 24.7417 26.3154 24.7588 26.3568C24.7759 26.3981 24.7847 26.4424 24.7847 26.4872C24.7847 26.5319 24.7759 26.5763 24.7587 26.6176C24.7416 26.6589 24.7165 26.6965 24.6848 26.7281V26.727ZM24.1205 25.6807C24.1844 25.7446 24.2203 25.8312 24.2203 25.9216C24.2203 26.0119 24.1844 26.0986 24.1205 26.1625L23.5012 26.7815C23.4698 26.8141 23.4322 26.84 23.3906 26.8579C23.3491 26.8758 23.3044 26.8852 23.2591 26.8855C23.2139 26.8859 23.169 26.8773 23.1271 26.8602C23.0852 26.8431 23.0472 26.8177 23.0152 26.7858C22.9832 26.7538 22.9579 26.7157 22.9408 26.6738C22.9236 26.632 22.915 26.5871 22.9154 26.5418C22.9158 26.4966 22.9252 26.4519 22.9431 26.4103C22.9609 26.3687 22.9869 26.3311 23.0194 26.2997L23.6387 25.6807C23.7026 25.6168 23.7892 25.5809 23.8796 25.5809C23.97 25.5809 24.0566 25.6168 24.1205 25.6807ZM25.3413 20.3714C25.2863 20.4269 25.2209 20.471 25.1487 20.501C25.0766 20.531 24.9992 20.5464 24.9211 20.5463H21.7611C21.6039 20.5462 21.4532 20.4837 21.342 20.3725C21.2308 20.2614 21.1683 20.1106 21.1682 19.9534C21.1678 19.939 21.1686 19.9245 21.1705 19.9102C21.1795 19.7682 21.241 19.6346 21.3431 19.5354C21.3975 19.4798 21.4626 19.4356 21.5344 19.4056C21.6062 19.3755 21.6833 19.3602 21.7611 19.3605H24.9211C25.0709 19.3601 25.2152 19.4167 25.3249 19.5188C25.4346 19.6209 25.5014 19.7608 25.5117 19.9102C25.5136 19.9245 25.5144 19.939 25.514 19.9534C25.5142 20.031 25.499 20.1079 25.4694 20.1796C25.4398 20.2514 25.3963 20.3165 25.3413 20.3714ZM32.9198 34.9127C32.9088 35.0238 32.8569 35.1269 32.7742 35.2019C32.6914 35.2769 32.5837 35.3184 32.4721 35.3184H28.2146C28.1639 35.3188 28.115 35.2998 28.0778 35.2654C28.0405 35.231 28.0178 35.1837 28.0143 35.1331C27.8859 33.2584 27.5674 26.4921 29.2848 22.3539C29.4569 21.9441 29.5688 21.5116 29.617 21.0697C29.694 20.3253 29.8491 18.8282 29.8441 17.9827C29.8467 17.9253 29.8711 17.8712 29.9123 17.8312C30.0018 17.7217 30.1258 17.646 30.2639 17.6163C30.2904 17.6187 30.3155 17.6286 30.3364 17.645C30.3573 17.6613 30.3731 17.6832 30.3818 17.7083C30.7694 18.5152 31.012 20.124 31.1726 21.1885C31.2128 21.571 31.2833 21.9497 31.3835 22.321C32.786 25.9012 33.1772 31.934 32.9198 34.9127Z" fill="#FFEBE5" fill-opacity="0.2"/>
</svg>
