<svg width="20" height="20" viewBox="0 0 20 20" fill="none" xmlns="http://www.w3.org/2000/svg">
<path fill-rule="evenodd" clip-rule="evenodd" d="M7.33398 15.079H5.33398C4.96598 15.079 4.66732 14.7945 4.66732 14.444C4.66732 14.0936 4.96598 13.8091 5.33398 13.8091H7.33398C7.70198 13.8091 8.00065 14.0936 8.00065 14.444C8.00065 14.7945 7.70198 15.079 7.33398 15.079ZM8.00065 12.5393H4.66732C3.93065 12.5393 3.33398 13.1075 3.33398 13.8091V15.079C3.33398 15.7805 3.93065 16.3488 4.66732 16.3488H8.00065C8.73732 16.3488 9.33398 15.7805 9.33398 15.079V13.8091C9.33398 13.1075 8.73732 12.5393 8.00065 12.5393ZM14.6673 6.19007H12.6673C12.2993 6.19007 12.0006 5.90563 12.0006 5.55515C12.0006 5.20468 12.2993 4.92023 12.6673 4.92023H14.6673C15.0353 4.92023 15.334 5.20468 15.334 5.55515C15.334 5.90563 15.0353 6.19007 14.6673 6.19007ZM15.334 3.65039H12.0007C11.264 3.65039 10.6673 4.21864 10.6673 4.92023V6.19007C10.6673 6.89166 11.264 7.45991 12.0007 7.45991H15.334C16.0707 7.45991 16.6673 6.89166 16.6673 6.19007V4.92023C16.6673 4.21864 16.0707 3.65039 15.334 3.65039ZM15.334 14.444C15.334 14.7945 15.0353 15.079 14.6673 15.079H12.6673C12.2993 15.079 12.0006 14.7945 12.0006 14.444V10.6345C12.0006 10.284 12.2993 9.9996 12.6673 9.9996H14.6673C15.0353 9.9996 15.334 10.284 15.334 10.6345V14.444ZM15.334 8.72975H12.0007C11.264 8.72975 10.6673 9.29801 10.6673 9.9996V15.079C10.6673 15.7805 11.264 16.3488 12.0007 16.3488H15.334C16.0707 16.3488 16.6673 15.7805 16.6673 15.079V9.9996C16.6673 9.29801 16.0707 8.72975 15.334 8.72975ZM8.00065 9.36468C8.00065 9.71515 7.70198 9.9996 7.33398 9.9996H5.33398C4.96598 9.9996 4.66732 9.71515 4.66732 9.36468V5.55515C4.66732 5.20468 4.96598 4.92023 5.33398 4.92023H7.33398C7.70198 4.92023 8.00065 5.20468 8.00065 5.55515V9.36468ZM8.00065 3.65039H4.66732C3.93065 3.65039 3.33398 4.21864 3.33398 4.92023V9.9996C3.33398 10.7012 3.93065 11.2694 4.66732 11.2694H8.00065C8.73732 11.2694 9.33398 10.7012 9.33398 9.9996V4.92023C9.33398 4.21864 8.73732 3.65039 8.00065 3.65039Z" fill="#E0E0E0"/>
</svg>
