<svg width="22" height="22" viewBox="0 0 22 22" fill="none" xmlns="http://www.w3.org/2000/svg">
<path fill-rule="evenodd" clip-rule="evenodd" d="M14.1176 13.9337H7.88424V9.53366C7.88424 7.57859 9.44258 6.60033 11.0001 6.60033H11.0017C12.5592 6.60033 14.1176 7.57859 14.1176 9.53366V13.9337ZM11.7801 16.1337C11.7801 16.5385 11.431 16.867 11.0009 16.867C10.5708 16.867 10.2217 16.5385 10.2217 16.1337V15.4003H11.7801V16.1337ZM16.4551 13.9337H15.6759V9.53366C15.6759 6.92813 13.8308 5.48199 11.7801 5.19159V3.66699H10.2217V5.19159C8.17098 5.48199 6.32591 6.92813 6.32591 9.53366V13.9337H5.54674C5.11664 13.9337 4.76758 14.2622 4.76758 14.667C4.76758 15.0718 5.11664 15.4003 5.54674 15.4003H8.66341V16.1337C8.66341 17.3488 9.70983 18.3337 11.0009 18.3337C12.292 18.3337 13.3384 17.3488 13.3384 16.1337V15.4003H16.4551C16.8852 15.4003 17.2342 15.0718 17.2342 14.667C17.2342 14.2622 16.8852 13.9337 16.4551 13.9337Z" fill="#1C162E"/>
</svg>
