<svg width="17" height="21" viewBox="0 0 17 21" fill="none" xmlns="http://www.w3.org/2000/svg">
<path fill-rule="evenodd" clip-rule="evenodd" d="M14.2225 0.291628H2.7775C1.48884 0.291628 0.444169 1.3363 0.444169 2.62496V17.9681C0.443734 18.2566 0.55689 18.5338 0.759169 18.7395L2.37063 20.3875C2.57022 20.5925 2.84424 20.7082 3.13042 20.7082C3.4166 20.7082 3.69062 20.5925 3.89021 20.3875L5.05688 19.1945C5.25647 18.9895 5.53049 18.8738 5.81667 18.8738C6.10285 18.8738 6.37687 18.9895 6.57646 19.1945L7.74313 20.3875C7.94317 20.5923 8.21736 20.7077 8.50365 20.7077C8.78994 20.7077 9.06413 20.5923 9.26417 20.3875L10.4308 19.1945C10.6304 18.9895 10.9045 18.8738 11.1906 18.8738C11.4768 18.8738 11.7508 18.9895 11.9504 19.1945L13.1171 20.3875C13.3167 20.5925 13.5907 20.7082 13.8769 20.7082C14.1631 20.7082 14.4371 20.5925 14.6367 20.3875L16.2408 18.7439C16.4448 18.5355 16.559 18.2554 16.5588 17.9637V3.31621V3.29871V2.62496C16.5588 2.00562 16.3125 1.41168 15.8743 0.974013C15.4361 0.536344 14.8418 0.290854 14.2225 0.291628Z" fill="#EF9F27" fill-opacity="0.8"/>
<path fill-rule="evenodd" clip-rule="evenodd" d="M10.6365 5.39575H4.5625C3.96971 5.39575 3.48917 5.8763 3.48917 6.46909C3.48917 7.06187 3.96971 7.54242 4.5625 7.54242H10.6365C11.2292 7.54242 11.7098 7.06187 11.7098 6.46909C11.7098 5.8763 11.2292 5.39575 10.6365 5.39575ZM7.66729 9.31575H4.5625C3.96971 9.31575 3.48917 9.7963 3.48917 10.3891C3.48917 10.9819 3.96971 11.4624 4.5625 11.4624H7.66729C8.05076 11.4624 8.40509 11.2578 8.59683 10.9258C8.78856 10.5937 8.78856 10.1845 8.59683 9.85242C8.40509 9.52033 8.05076 9.31575 7.66729 9.31575Z" fill="white"/>
</svg>
