<svg width="28" height="28" viewBox="0 0 28 28" fill="none" xmlns="http://www.w3.org/2000/svg">
<mask id="mask0_10236_157543" style="mask-type:luminance" maskUnits="userSpaceOnUse" x="0" y="0" width="28" height="28">
<path fill-rule="evenodd" clip-rule="evenodd" d="M0.269484 8.60863C0.678829 4.14928 4.14766 0.667558 8.60747 0.263207C10.3083 0.109002 12.161 0 14 0C15.8456 0 17.7048 0.109776 19.4106 0.264848C23.8613 0.669462 27.3249 4.13954 27.732 8.58998C27.8887 10.3033 28 12.1655 28 14C28 15.8412 27.8879 17.7104 27.7303 19.4289C27.3229 23.8698 23.8714 27.3342 19.4301 27.7366C17.7265 27.8909 15.8633 28 14 28C12.1433 28 10.2866 27.8917 8.58798 27.7382C4.13752 27.3361 0.680802 23.86 0.271221 19.4103C0.112792 17.6891 0 15.8234 0 14C0 12.1833 0.111968 10.3246 0.269484 8.60863Z" fill="white"/>
</mask>
<g mask="url(#mask0_10236_157543)">
<rect width="28" height="28" fill="url(#paint0_linear_10236_157543)"/>
<path fill-rule="evenodd" clip-rule="evenodd" d="M21.2053 9.75262C21.4801 10.0045 21.4987 10.4315 21.2468 10.7063L12.9968 19.7063C12.8724 19.842 12.6979 19.921 12.5139 19.925C12.3298 19.929 12.1521 19.8577 12.0219 19.7275L7.52192 15.2275C7.25832 14.9639 7.25832 14.5365 7.52192 14.2729C7.78553 14.0093 8.21291 14.0093 8.47652 14.2729L12.478 18.2744L20.2516 9.79409C20.5035 9.51928 20.9305 9.50072 21.2053 9.75262Z" fill="white"/>
</g>
<defs>
<linearGradient id="paint0_linear_10236_157543" x1="0" y1="14" x2="28" y2="14" gradientUnits="userSpaceOnUse">
<stop stop-color="#1AD5AD"/>
<stop offset="1" stop-color="#23D99D"/>
</linearGradient>
</defs>
</svg>
