<svg width="17" height="21" viewBox="0 0 17 21" fill="none" xmlns="http://www.w3.org/2000/svg">
<path fill-rule="evenodd" clip-rule="evenodd" d="M14.2225 0.291658H2.77749C1.48882 0.291658 0.444154 1.33633 0.444154 2.62499V17.9681C0.443719 18.2567 0.556875 18.5338 0.759154 18.7396L2.37061 20.3875C2.5702 20.5926 2.84423 20.7083 3.1304 20.7083C3.41658 20.7083 3.6906 20.5926 3.8902 20.3875L5.05686 19.1946C5.25645 18.9895 5.53048 18.8738 5.81665 18.8738C6.10283 18.8738 6.37685 18.9895 6.57645 19.1946L7.74311 20.3875C7.94316 20.5923 8.21735 20.7078 8.50363 20.7078C8.78992 20.7078 9.06411 20.5923 9.26415 20.3875L10.4308 19.1946C10.6304 18.9895 10.9044 18.8738 11.1906 18.8738C11.4768 18.8738 11.7508 18.9895 11.9504 19.1946L13.1171 20.3875C13.3167 20.5926 13.5907 20.7083 13.8769 20.7083C14.163 20.7083 14.4371 20.5926 14.6367 20.3875L16.2408 18.7439C16.4448 18.5355 16.559 18.2554 16.5587 17.9637V3.31624V3.29874V2.62499C16.5587 2.00565 16.3125 1.41171 15.8743 0.974044C15.4361 0.536375 14.8418 0.290884 14.2225 0.291658Z" fill="#C1C7D0"/>
<path fill-rule="evenodd" clip-rule="evenodd" d="M10.6365 5.39581H4.5625C3.96971 5.39581 3.48917 5.87636 3.48917 6.46915C3.48917 7.06193 3.96971 7.54248 4.5625 7.54248H10.6365C11.2292 7.54248 11.7098 7.06193 11.7098 6.46915C11.7098 5.87636 11.2292 5.39581 10.6365 5.39581ZM7.66729 9.31581H4.5625C3.96971 9.31581 3.48917 9.79636 3.48917 10.3891C3.48917 10.9819 3.96971 11.4625 4.5625 11.4625H7.66729C8.05076 11.4625 8.40509 11.2579 8.59683 10.9258C8.78856 10.5937 8.78856 10.1846 8.59683 9.85248C8.40509 9.52039 8.05076 9.31581 7.66729 9.31581Z" fill="white"/>
</svg>
